.
..............................Site Info...........................

 -   http://www.scenetime.com  *_*    

Scenetime .Always on time . friendly online private torrent community ..

     We care to share . Join us on  http://www.scenetime.com 

    Be the first to get new release at  http://www.scenetime.com

        Seed back for speed


...................................NFO:.................................................[IMG]http://i.imgur.com/3VOup.jpg[/IMG]


[color=blue][size=4][b]Rise.of.the.Zombies.2012.HDRip.XVID.AC3.HQ.Hive-CM8[/b][/size][/color]


[b]Thx Hive

CM8 Doing It Right The First Time :D


Source: 720p evolve
thx

Encode:
An Asylum Production Movie, ran on syfy-hd yesterday
looks like a pretty flashy zombie movie in a prison
has good cast like danny trejo and levar burton
one of the better syfy productions for sure

Video had some logos lower right corner along with msgs, blurred them away, gone for good
added brightness, sharpness, rgb and denoise
got very nice
enjoy

Video: 720x400 @bitrate 1700 2pass
Audio: English AC3 5.1 @448
Sample: Yes, included[/b]
 
http://www.imdb.com/title/tt2236182/


General
Complete name                  : Rise.of.the.Zombies.2012.HDRip.XVID.AC3.HQ.Hive-CM8.avi
Format                         : AVI
Format/Info                    : Audio Video Interleave
File size                      : 1.38 GiB
Duration                       : 1h 34mn
Overall bit rate               : 2 092 Kbps
Writing application            : Nandub v1.0rc2
Writing library                : Nandub build 1853/release

Video
ID                             : 0
Format                         : MPEG-4 Visual
Format profile                 : Advanced Simple@L5
Format settings, BVOP          : 2
Format settings, QPel          : Yes
Format settings, GMC           : No warppoints
Format settings, Matrix        : Default (H.263)
Muxing mode                    : Packed bitstream
Codec ID                       : XVID
Codec ID/Hint                  : XviD
Duration                       : 1h 34mn
Bit rate                       : 1 699 Kbps
Width                          : 720 pixels
Height                         : 400 pixels
Display aspect ratio           : 16:9
Frame rate                     : 23.976 fps
Color space                    : YUV
Chroma subsampling             : 4:2:0
Bit depth                      : 8 bits
Scan type                      : Progressive
Compression mode               : Lossy
Bits/(Pixel*Frame)             : 0.246
Stream size                    : 1.12 GiB (81%)
Writing library                : XviD 1.2.1 (UTC 2008-12-04)

Audio
ID                             : 1
Format                         : AC-3
Format/Info                    : Audio Coding 3
Mode extension                 : CM (complete main)
Format settings, Endianness    : Big
Codec ID                       : 2000
Duration                       : 1h 34mn
Bit rate mode                  : Constant
Bit rate                       : 384 Kbps
Channel(s)                     : 6 channels
Channel positions              : Front: L C R, Side: L R, LFE
Sampling rate                  : 48.0 KHz
Bit depth                      : 16 bits
Compression mode               : Lossy
Stream size                    : 259 MiB (18%)
Alignment                      : Split accross interleaves
Interleave, duration           : 42 ms (1.00 video frame)
Interleave, preload duration   : 500 ms


Plot:
A group of survivors is holed up at Alcatraz Prison in the wake of an undead pandemic.
Their life is peaceful for only so long, however. Soon, the zombies are at their cell
doors and they have to evacuate to the mainland or die.


Cast:
Mariel Hemingway  ...    Dr. Lynn Snyder
Chad Lindberg     ...    Kyle
LeVar Burton      ...    Dr. Dan Halpern


[img]http://img696.imageshack.us/img696/7648/rzrrzrzrvzz.png[/img]
[img]http://img837.imageshack.us/img837/5913/rzrrzrzrzz.png[/img]
[img]http://img152.imageshack.us/img152/4349/rzrrzrzz.png[/img]
[img]http://img545.imageshack.us/img545/9130/rzrrzz.png[/img]
[img]http://img803.imageshack.us/img803/2108/rzrz.png[/img]
[img]http://img339.imageshack.us/img339/589/70653465.png[/img]



Greetz

ViSiON,SPK,SceneLovers,PRESTiGE,SANTi,3LT0N,YanKeeS,COPYxRIGHT,THC,T0XiC
D2U,LKRG,ADTRG,Feel-Free,KoDeKinG,FLAWL3SS,WBZ,BHRG,26K,NOVA,MAGNET
Unevano,BigVik,Rapeseed,SAFC,TED,goldadvance,KaN1vE,Pinnz,Wayne
Mr Hive,jtr,Limey,ICONiK,SeeN,st3ph and most P2P groups
Great Work Guys :D

LOOKING FOR ANYTHING YOU WANT TO LOOK AND SOUND BETTER

CM8@hushmail.com